# xmcd
#
# Track frame offsets:
#	150
#	15416
#	31823
#	50835
#	67059
#	85210
#	100582
#	116330
#	132268
#	149130
#	165228
#	182377
#	196533
#	211366
#	229749
#	244991
#	260144
#	277274
#	302448
#	318240
#
# Disc length: 4444 seconds
#
# Revision: 1
# Processed by: cddbd v1.4PL0 Copyright (c) Steve Scherf et al.
# Submitted via: audiograbber 1.80
#
DISCID=16115a14
DTITLE=Tic Tac Toe - Millenium Hits 2000
DYEAR=1900
DGENRE=
TTITLE0=Isch liebe disch
TTITLE1=Mr. Wichtig
TTITLE2=Große Jungs weinen nicht
TTITLE3=Bitte küss mich nicht
TTITLE4=Warum
TTITLE5=Das geht mir auf´n Sack
TTITLE6=Isch liebe disch
TTITLE7=Ich find dich scheiße
TTITLE8=Funky
TTITLE9=Furz
TTITLE10=Ich war so gern so blöd wie du
TTITLE11=Ich fühl mich A.U.
TTITLE12=Isch liebe disch
TTITLE13=Verpiss dich
TTITLE14=Warum
TTITLE15=Beruf Sohn
TTITLE16=Schubidamdam
TTITLE17=Funky
TTITLE18=Isch liebe disch
TTITLE19=I think you´re scheiße
EXTD=
EXTT0=
EXTT1=
EXTT2=
EXTT3=
EXTT4=
EXTT5=
EXTT6=
EXTT7=
EXTT8=
EXTT9=
EXTT10=
EXTT11=
EXTT12=
EXTT13=
EXTT14=
EXTT15=
EXTT16=
EXTT17=
EXTT18=
EXTT19=
PLAYORDER=
